
<svg width="200" height="400" viewBox="0 0 200 400" xmlns="http://www.w3.org/2000/svg">
  <rect width="200" height="400" rx="20" fill="#333333"/>
  <rect x="30" y="30" width="140" height="40" rx="10" fill="#555555"/>
  <circle cx="100" cy="120" r="30" fill="#777777"/>
  <rect x="70" y="170" width="60" height="20" rx="5" fill="#777777"/>
  <rect x="70" y="200" width="60" height="20" rx="5" fill="#777777"/>
  <rect x="40" y="240" width="35" height="35" rx="5" fill="#777777"/>
  <rect x="82.5" y="240" width="35" height="35" rx="5" fill="#777777"/>
  <rect x="125" y="240" width="35" height="35" rx="5" fill="#777777"/>
  <rect x="40" y="285" width="35" height="35" rx="5" fill="#777777"/>
  <rect x="82.5" y="285" width="35" height="35" rx="5" fill="#777777"/>
  <rect x="125" y="285" width="35" height="35" rx="5" fill="#777777"/>
  <rect x="40" y="330" width="35" height="35" rx="5" fill="#777777"/>
  <rect x="82.5" y="330" width="35" height="35" rx="5" fill="#777777"/>
  <rect x="125" y="330" width="35" height="35" rx="5" fill="#777777"/>
</svg>
